<svg width="100" height="47" viewBox="0 0 100 47" xmlns="http://www.w3.org/2000/svg" fill="#fff">
  <path d="M7.26162 17.142C6.94377 17.2399 6.5529 17.3743 6.089 17.5453C5.6251 17.7162 5.11805 17.9113 4.56867 18.1312C4.01929 18.3511 3.49979 18.571 3.01182 18.7909C2.52386 19.0109 2.09066 19.2366 1.71141 19.4689C1.33299 19.7013 1.08319 19.903 0.960372 20.0731C0.863277 20.1959 0.783608 20.2806 0.722197 20.3295C0.661616 20.3785 0.606845 20.415 0.557053 20.4391H0.484024C0.362032 20.4391 0.252488 20.3843 0.154563 20.2739C0.0574674 20.1644 0.0325707 20.0358 0.0815334 19.8897C0.204355 19.3279 1.04668 18.693 2.60933 17.9851C3.26909 17.6922 3.93382 17.4175 4.60601 17.1611C5.27738 16.9046 5.88817 16.6847 6.43755 16.5013C6.98693 16.3179 7.44502 16.1718 7.81099 16.0615C8.17697 15.9519 8.38444 15.8847 8.4334 15.8598L8.79938 15.2739C9.72718 13.7353 10.6309 12.2831 11.5106 10.9146C12.3894 9.54696 13.1712 8.35028 13.855 7.32455C14.538 6.29882 15.2956 5.18762 16.1263 3.99094C16.1263 3.96687 16.0035 3.98513 15.7604 4.04571C15.5164 4.10712 15.211 4.18679 14.8442 4.28388C14.4782 4.38181 14.0807 4.49135 13.6533 4.61334C13.2259 4.73617 12.8409 4.85733 12.4998 4.97932C11.3031 5.3453 10.2284 5.70629 9.27572 6.05982C8.32303 6.41418 7.51722 6.73782 6.8583 7.03077C6.19855 7.32372 5.69149 7.56189 5.33797 7.7453C4.98361 7.9287 4.7944 8.03243 4.77033 8.0565V8.09301C4.77033 8.11791 4.77614 8.12953 4.78859 8.12953C4.80104 8.12953 4.80684 8.14198 4.80684 8.16604C4.95373 8.31293 4.95373 8.48389 4.80684 8.67891C4.73382 8.77683 4.59938 8.82579 4.40353 8.82579C4.20767 8.82579 4.00601 8.75277 3.79938 8.60588C3.59191 8.45899 3.52469 8.27642 3.59772 8.0565C3.67075 7.76355 4.20768 7.35442 5.20933 6.82911C6.21016 6.30463 7.53548 5.74861 9.18361 5.16272C10.8317 4.57683 12.7305 3.99011 14.8799 3.40422C17.0284 2.81832 19.2882 2.32953 21.6566 1.93865C23.855 1.59675 25.8998 1.3287 27.7927 1.13285C29.6849 0.937826 31.401 0.839901 32.9396 0.839901C33.4766 0.839901 33.9894 0.852349 34.4782 0.876415C34.9662 0.901311 35.4185 0.937827 35.8334 0.985959C36.4931 1.05899 36.9745 1.12704 37.2807 1.18762C37.5861 1.24903 37.7263 1.38928 37.7023 1.6092C37.6774 1.82911 37.4334 1.93865 36.9695 1.93865C36.6035 1.93865 36.0533 1.90795 35.3214 1.84737C34.5886 1.78679 33.6359 1.75608 32.4641 1.75608C30.9496 1.75608 29.021 1.86563 26.6766 2.08554C24.3322 2.30546 21.4624 2.78181 18.0683 3.51459C17.7753 3.56355 17.5977 3.61251 17.5371 3.66148C17.4757 3.71044 17.3479 3.84488 17.1521 4.0648C16.8832 4.40671 16.5114 4.92538 16.0351 5.62164C15.5587 6.31791 15.0458 7.0814 14.4965 7.91127C13.9471 8.74198 13.3853 9.59675 12.811 10.4756C12.2367 11.3544 11.7239 12.1611 11.2724 12.893C10.8201 13.6258 10.4483 14.2299 10.1554 14.7063C9.86245 15.1826 9.71556 15.4333 9.71556 15.4573C10.0815 15.3602 10.5214 15.2441 11.0342 15.1096C11.5471 14.976 12.0965 14.8349 12.6824 14.688C13.2683 14.5411 13.8732 14.4009 14.4956 14.2665C15.118 14.1328 15.723 14.0042 16.3089 13.8814C19.3861 13.2465 21.8342 12.8374 23.6533 12.654C25.4724 12.4706 26.7853 12.3793 27.5911 12.3793C28.299 12.3793 28.6774 12.4042 28.7263 12.4523C28.8483 12.5254 28.9031 12.6299 28.8915 12.7636C28.879 12.898 28.8118 13.0017 28.6898 13.0748C28.6409 13.1237 28.5006 13.1544 28.2683 13.166C28.0359 13.1785 27.5297 13.2092 26.7479 13.2573C25.5263 13.3304 24.2384 13.459 22.8832 13.6416C21.528 13.8241 20.1961 14.0391 18.8907 14.2831C17.5836 14.527 16.3388 14.7777 15.1546 15.0341C13.9695 15.2905 12.9255 15.5353 12.0226 15.7669C11.1189 15.9992 10.3927 16.1943 9.84336 16.3528C9.29398 16.5121 9.00684 16.6158 8.98278 16.664C8.93381 16.7619 8.78112 17.0241 8.52469 17.4515C8.26826 17.8789 7.98693 18.3677 7.68236 18.9171C7.37697 19.4665 7.05996 20.0158 6.72967 20.5652C6.40021 21.1146 6.13714 21.5727 5.94211 21.9387C5.30643 23.1104 4.79357 24.0814 4.40353 24.8507C4.01265 25.62 3.70726 26.2299 3.48734 26.6822C3.26743 27.1337 3.10311 27.4573 2.99274 27.6532C2.88319 27.8482 2.77946 27.9461 2.68153 27.9461H2.6085C2.43755 27.9461 2.32137 27.8914 2.26079 27.781C2.20021 27.6714 2.23008 27.4698 2.35207 27.1768C2.49896 26.7611 2.73631 26.2241 3.0666 25.5652C3.39606 24.9055 3.75622 24.2042 4.14709 23.459C4.53714 22.7146 4.9529 21.9569 5.39274 21.1876C5.83257 20.4183 6.22261 19.7221 6.56535 19.0997C6.90726 18.4772 7.30975 17.7752 7.77448 16.9934C7.75041 16.9951 7.57946 17.0441 7.26162 17.142Z" />
  <path d="M29.5712 13.4416C29.6442 13.3685 29.7421 13.332 29.8641 13.332C29.9861 13.332 30.0956 13.381 30.1936 13.4789C30.2907 13.5768 30.3156 13.6864 30.2666 13.8084L29.9006 14.6142C29.6317 15.176 29.5097 15.4565 29.5346 15.4565L29.5712 15.42C29.5712 15.3959 29.5952 15.3594 29.6442 15.3104C29.8641 15.0905 30.1388 14.8158 30.4683 14.4864C30.7977 14.1569 31.1521 13.8449 31.5305 13.5519C31.9089 13.259 32.2873 13.0092 32.6658 12.8009C33.0442 12.5934 33.3803 12.4897 33.6732 12.4897C34.0633 12.4897 34.3512 12.6308 34.5338 12.9113C34.7172 13.1926 34.7836 13.5038 34.7355 13.8457C34.7106 14.1146 34.65 14.298 34.5521 14.3951C34.4541 14.493 34.3562 14.542 34.2591 14.542C34.1612 14.542 34.0757 14.5055 34.0027 14.4324C33.8799 14.2855 33.85 14.1212 33.9114 13.9378C33.972 13.7544 33.9786 13.6026 33.9297 13.4797C33.9048 13.4067 33.8317 13.3702 33.7097 13.3702C33.3919 13.3702 32.8674 13.6449 32.1346 14.1943C31.4019 14.7436 30.645 15.4831 29.8633 16.4109L28.5081 18.059C28.3861 18.2059 28.2517 18.2789 28.1048 18.2789C27.9338 18.2789 27.7878 18.2117 27.6649 18.0772C27.5429 17.9436 27.5064 17.7901 27.5554 17.6192C27.5554 17.5702 27.6591 17.332 27.8666 16.9046C28.0741 16.4772 28.3006 16.0067 28.5446 15.4938C28.7894 14.981 29.0151 14.5171 29.2226 14.1021C29.4301 13.6864 29.5463 13.4665 29.5712 13.4416Z" />
  <path d="M35.762 17.6548C35.811 17.7038 35.9695 17.6308 36.2384 17.4349C36.5064 17.2399 36.8002 17.0075 37.1172 16.7387C37.4591 16.4698 37.8616 16.1403 38.3263 15.7494C38.7413 15.4075 39.0832 15.1212 39.3521 14.8889C39.6201 14.6573 39.8284 14.4806 39.9745 14.3577C40.1695 14.2109 40.3164 14.1013 40.4143 14.0283C40.6824 14.1262 40.8417 14.2241 40.8907 14.3212C40.9396 14.4192 40.9454 14.5171 40.9089 14.6142C40.8724 14.7121 40.8044 14.8034 40.7073 14.8889C40.6093 14.9743 40.5239 15.0416 40.4508 15.0905C40.3039 15.2133 40.0849 15.4017 39.7911 15.6582C39.4973 15.9146 39.1927 16.1777 38.8749 16.4457C38.7039 16.5926 38.4774 16.7876 38.1969 17.0316C37.9156 17.2756 37.6168 17.5138 37.2998 17.7461C36.982 17.9785 36.6707 18.1801 36.3654 18.3503C36.06 18.5212 35.7977 18.6067 35.5778 18.6067C35.455 18.6067 35.3214 18.5577 35.1745 18.4598C35.0276 18.3627 34.9421 18.2523 34.9181 18.1304C34.845 17.8864 34.8575 17.6059 34.9546 17.288C35.0517 16.971 35.1131 16.7876 35.138 16.7387C34.9911 16.8615 34.821 16.9951 34.6251 17.142C34.4301 17.2889 34.2351 17.3619 34.0392 17.3619C33.8442 17.3619 33.6973 17.2764 33.5994 17.1055C33.4774 16.9345 33.4658 16.654 33.5629 16.2631C33.6608 15.8731 33.8376 15.464 34.094 15.0358C34.3504 14.6084 34.65 14.2299 34.9911 13.9005C35.333 13.571 35.6749 13.3818 36.0168 13.3328H36.1637C36.4317 13.3328 36.6151 13.3876 36.7131 13.498C36.8102 13.6075 36.884 13.6872 36.933 13.7362C37.006 13.6872 37.1164 13.5777 37.2624 13.4067C37.4093 13.2358 37.5795 13.1503 37.7753 13.1503C37.8243 13.1503 37.8973 13.1752 37.9952 13.2233C38.1172 13.2963 38.1902 13.3826 38.2151 13.4797C38.2392 13.5777 38.2392 13.6814 38.2151 13.7909C38.1902 13.9005 38.1421 13.9926 38.0683 14.0656C37.9944 14.1387 37.9089 14.176 37.8118 14.176C37.7629 14.2009 37.7263 14.2192 37.7023 14.2308C37.6774 14.2432 37.6044 14.3221 37.4824 14.4689C36.8467 15.2258 36.3952 15.9403 36.1272 16.6117C35.8591 17.2822 35.7371 17.6308 35.762 17.6548ZM36.2019 14.4673C36.177 14.3943 36.1654 14.3337 36.1654 14.2839C36.1654 14.2349 36.1405 14.2109 36.0923 14.2109C36.0434 14.2109 35.9828 14.2358 35.9089 14.2839C35.689 14.4067 35.4998 14.5652 35.3413 14.7602C35.1819 14.9561 35.0417 15.1445 34.9197 15.3279C34.7977 15.5113 34.6882 15.737 34.5902 16.0059C34.6633 15.9328 34.7371 15.859 34.8102 15.786C34.9073 15.7129 34.9994 15.6341 35.0849 15.5478C35.1703 15.4623 35.2741 15.3586 35.3961 15.2366L36.2019 14.4673Z" />
  <path d="M42.7579 13.625C42.9529 13.503 43.1239 13.4175 43.2707 13.3685C43.4176 13.3196 43.5878 13.2955 43.7836 13.2955C44.0035 13.3445 44.1496 13.4607 44.2234 13.6432C44.2973 13.8258 44.2965 14.0275 44.2234 14.2474C44.1985 14.3204 44.1504 14.4366 44.0766 14.5951C44.0035 14.7544 43.9297 14.9129 43.8566 15.0714C43.7836 15.2308 43.7156 15.371 43.655 15.493C43.5936 15.6158 43.5753 15.6889 43.6002 15.7129C43.6002 15.7378 43.6425 15.7378 43.728 15.7129C43.8135 15.6889 43.972 15.6158 44.2044 15.493C44.4359 15.371 44.7844 15.1943 45.2483 14.9619C45.7122 14.7304 46.323 14.4183 47.0799 14.0275C47.3479 14.1254 47.5015 14.2656 47.538 14.449C47.5745 14.6324 47.4948 14.7851 47.2998 14.9071C47.1529 15.005 46.9023 15.1519 46.5487 15.347C46.1944 15.5428 45.8218 15.7378 45.4317 15.9328C45.0409 16.1287 44.6683 16.2988 44.3147 16.4457C43.9604 16.5926 43.6857 16.6656 43.4907 16.6656C43.2218 16.6656 43.0143 16.5553 42.8683 16.3362C42.7703 16.1893 42.7214 16.0125 42.7214 15.805C42.7214 15.5976 42.7521 15.4017 42.8127 15.2192C42.8732 15.0358 42.9405 14.8656 43.0143 14.7063C43.0873 14.5478 43.1239 14.4565 43.1239 14.4316L42.977 14.5411C42.8541 14.6142 42.6409 14.7486 42.3363 14.9445C42.0309 15.1403 41.7006 15.3602 41.3471 15.6042C40.9927 15.849 40.6633 16.093 40.3579 16.337C40.0525 16.5818 39.8392 16.7893 39.7164 16.9594C39.5944 17.1063 39.4483 17.1793 39.2766 17.1793C39.1795 17.1793 39.1056 17.1669 39.0566 17.1428C38.9346 17.0938 38.8616 17.0092 38.8367 16.8864C38.8127 16.7644 38.8243 16.6548 38.8732 16.5569C38.8732 16.5328 38.928 16.4291 39.0384 16.2457C39.1487 16.0623 39.2766 15.849 39.4226 15.605C39.8135 14.9951 40.1131 14.5187 40.3197 14.1768C40.5272 13.8349 40.6857 13.5851 40.7961 13.4258C40.9056 13.2673 40.9853 13.176 41.0342 13.1511C41.0832 13.127 41.1438 13.1146 41.2176 13.1146C41.3645 13.1146 41.4923 13.1636 41.6019 13.2615C41.7114 13.3594 41.7421 13.4938 41.6932 13.6648C41.6683 13.7378 41.6259 13.8299 41.5653 13.9395C41.5039 14.049 41.4492 14.1287 41.4002 14.1777C41.2292 14.4465 41.1554 14.581 41.1803 14.581C41.2292 14.581 41.3753 14.4897 41.6201 14.3063C41.8666 14.1196 42.245 13.8938 42.7579 13.625Z" />
  <path d="M51.2932 14.8341C51.1222 14.932 50.8226 15.103 50.3952 15.347C49.9678 15.5918 49.5097 15.8358 49.0218 16.0797C48.533 16.3245 48.0566 16.5378 47.5927 16.7212C47.1288 16.9046 46.7869 16.9959 46.567 16.9959C46.445 16.9959 46.3595 16.9835 46.3106 16.9594C45.9205 16.8374 45.7488 16.5743 45.7977 16.1719C45.8467 15.7685 46.0118 15.3536 46.2923 14.9262C46.5736 14.4988 46.9147 14.1204 47.318 13.7909C47.7214 13.4615 48.0932 13.2963 48.4351 13.2963C48.7031 13.2963 48.8865 13.3826 48.9844 13.5528C49.0815 13.7237 49.1064 13.9071 49.0575 14.1021C48.9595 14.371 48.8127 14.5055 48.6176 14.5055C48.4218 14.5055 48.2998 14.42 48.2517 14.249L48.0317 14.3221C47.616 14.615 47.2865 14.9577 47.0425 15.3478C46.7985 15.7387 46.6766 15.9835 46.6766 16.0806C46.6766 16.1536 46.884 16.093 47.299 15.8972C47.7139 15.7021 48.1836 15.4756 48.7089 15.2192C49.2334 14.9627 49.728 14.7129 50.1927 14.4681C50.6566 14.2241 50.9371 14.0781 51.0351 14.0283C51.45 14.1013 51.6334 14.2299 51.5844 14.4133C51.5371 14.5959 51.44 14.7362 51.2932 14.8341Z" />
  <path d="M52.9048 14.6507C52.6359 14.6997 52.3612 14.8523 52.0807 15.1088C51.7994 15.3652 51.5985 15.6283 51.4766 15.8963C51.4276 15.9943 51.4218 16.0557 51.4583 16.0797C51.4948 16.1046 51.5861 16.1163 51.733 16.1163C52.001 16.1163 52.3313 16.049 52.7222 15.9146C53.1122 15.781 53.5097 15.6216 53.9131 15.4382C54.3164 15.2548 54.7064 15.0665 55.0857 14.8706C55.4641 14.6756 55.7637 14.5171 55.9828 14.3943C56.1048 14.3212 56.2085 14.2665 56.294 14.2291C56.3795 14.1926 56.4458 14.1503 56.4956 14.1005C56.5446 14.0764 56.5927 14.0515 56.6425 14.0275C56.8375 14.1005 56.9662 14.1802 57.0268 14.2656C57.0873 14.3511 57.1122 14.4366 57.0998 14.5221C57.0873 14.6075 57.0566 14.6872 57.0085 14.7602C56.9595 14.8333 56.9106 14.8831 56.8616 14.9071C56.5687 15.0781 56.1961 15.2864 55.7446 15.5295C55.2923 15.7743 54.8226 16.0001 54.3346 16.2075C53.8458 16.415 53.3695 16.5918 52.9056 16.7387C52.4417 16.8855 52.0508 16.9586 51.7338 16.9586C51.538 16.9586 51.4044 16.9461 51.3305 16.9221C51.0135 16.849 50.8301 16.7511 50.7811 16.6291C50.7322 16.5071 50.684 16.4457 50.6342 16.4457C50.6102 16.4457 50.5006 16.605 50.3048 16.9221C50.1828 17.093 50.0849 17.2457 50.0118 17.3801C49.9388 17.5146 49.8044 17.5694 49.6085 17.5453C49.3645 17.4723 49.255 17.3254 49.279 17.1055C49.279 17.0565 49.4019 16.8183 49.645 16.3909C49.889 15.9644 50.2127 15.4142 50.616 14.7428C51.0193 14.0714 51.4765 13.308 51.9894 12.4532C52.5023 11.5984 53.0268 10.7254 53.5645 9.83409C54.1014 8.94281 54.6268 8.07558 55.1396 7.23326C55.6525 6.39094 56.1106 5.63409 56.5131 4.96189C56.9164 4.29052 57.3736 3.5511 57.8865 2.74529C57.9595 2.67226 58.045 2.63575 58.1429 2.63575C58.2649 2.63575 58.3745 2.69716 58.4724 2.81915C58.5695 2.94198 58.5944 3.07558 58.5454 3.22247C58.5205 3.27144 58.3496 3.56438 58.0326 4.10131C57.7147 4.63907 57.318 5.30463 56.8417 6.09799C56.3653 6.89218 55.8467 7.74613 55.2849 8.66231C54.723 9.57849 54.2044 10.4333 53.728 11.2266C53.2517 12.0208 52.855 12.6864 52.5371 13.2233C52.2193 13.7611 52.0483 14.0416 52.0243 14.0656C52.1463 13.9926 52.3114 13.9254 52.5189 13.864C52.7263 13.8034 52.9031 13.7727 53.05 13.7727C53.3189 13.7727 53.5446 13.8275 53.728 13.9378C53.9114 14.0482 54.0392 14.176 54.1131 14.3229C54.1861 14.4698 54.2102 14.6158 54.1861 14.7627C54.1612 14.9096 54.0765 15.0075 53.9297 15.0557C53.9048 15.0806 53.8566 15.0922 53.7828 15.0922C53.6359 15.0922 53.5139 15.0192 53.4168 14.8723C53.3189 14.7254 53.172 14.6523 52.977 14.6523H52.9048V14.6507Z" />
  <path d="M59.26 28.0764C59.2965 28.1129 59.3147 28.1918 59.3147 28.3146C59.3147 28.5835 59.1562 28.7179 58.8384 28.7179C58.6915 28.7179 58.5579 28.6748 58.4351 28.5893C58.3131 28.5038 58.24 28.3636 58.2151 28.1677C58.1911 27.9478 58.4533 27.2208 59.0027 25.9884C59.5521 24.7553 60.3463 23.1801 61.3836 21.2631C62.4218 19.3461 63.6915 17.1785 65.1936 14.7611C66.6956 12.3436 68.3985 9.8399 70.3039 7.25152C70.7919 6.59177 71.3355 5.86563 71.9338 5.07227C72.5321 4.2789 73.1064 3.52787 73.6558 2.81915C74.2052 2.11127 74.6815 1.50629 75.0848 1.00588C75.4882 0.505461 75.7255 0.230772 75.7994 0.18181C75.9214 0.108781 76.0309 0.0722656 76.1288 0.0722656C76.2757 0.0722656 76.3969 0.139485 76.4948 0.273925C76.5919 0.408365 76.5803 0.58513 76.4583 0.805047C76.3604 1.02496 76.0741 1.51376 75.5977 2.27061C75.1214 3.02745 74.5653 3.96189 73.9313 5.0731C73.2956 6.1843 72.6309 7.42994 71.9346 8.8092C71.2384 10.1893 70.5977 11.6241 70.0118 13.1138C69.255 15.0183 68.7355 16.6914 68.455 18.132C68.1736 19.5735 68.1678 20.5868 68.4367 21.1727C68.5338 21.4175 68.7297 21.5395 69.0226 21.5395C69.3155 21.5395 69.6508 21.4299 70.0301 21.21C70.4085 20.9901 70.7994 20.7337 71.2019 20.4407C71.6043 20.1478 71.9836 19.8424 72.3371 19.5246C72.6907 19.2075 72.9786 18.9387 73.1977 18.7187C73.6616 18.2789 74.2052 17.742 74.8276 17.1071C75.45 16.4723 76.201 15.6847 77.0807 14.7445C77.9595 13.8042 78.9728 12.7055 80.1214 11.4474C81.2691 10.1901 82.5994 8.73119 84.1139 7.06978C84.6267 6.48388 85.0417 6.01335 85.3595 5.65899C85.6765 5.30546 85.9272 5.03077 86.1106 4.83492C86.294 4.6399 86.4276 4.50546 86.5139 4.4316C86.5994 4.35857 86.6541 4.32206 86.679 4.32206C86.7761 4.27309 86.85 4.24903 86.899 4.24903C87.0209 4.24903 87.1305 4.3038 87.2284 4.41418C87.3255 4.52372 87.3504 4.65235 87.3014 4.79924C87.2765 4.8482 87.2035 4.95193 87.0815 5.11044C86.9587 5.26978 86.8002 5.45816 86.6052 5.67808C85.4815 7.02164 84.4309 8.44405 83.455 9.94612C82.4782 11.4482 81.5985 12.9378 80.8176 14.415C80.0359 15.893 79.3463 17.3154 78.7479 18.6822C78.1496 20.0499 77.6492 21.2831 77.2458 22.3818C76.8425 23.4806 76.5554 24.4026 76.3853 25.1478C76.2143 25.8922 76.1529 26.3752 76.2019 26.5951C76.299 26.9851 76.1894 27.181 75.8724 27.181C75.7255 27.181 75.5911 27.0714 75.4691 26.8515C75.3712 26.6557 75.3413 26.3569 75.3778 25.9536C75.4143 25.5503 75.5056 25.0864 75.6525 24.5619C75.7994 24.0366 75.9761 23.4872 76.1836 22.9138C76.3911 22.3403 76.5919 21.7909 76.7878 21.2656C76.9828 20.7411 77.172 20.2648 77.3554 19.8374C77.5388 19.41 77.679 19.0864 77.777 18.8665C78.3869 17.4507 78.9429 16.2291 79.4434 15.2034C79.9438 14.1777 80.3712 13.3478 80.7255 12.7121C81.079 12.0772 81.3355 11.6258 81.4948 11.3569C81.6533 11.0889 81.6965 11.0034 81.6226 11.1005C79.8641 13.0299 78.2641 14.7702 76.8234 16.3204C75.3819 17.8714 74.0998 19.1353 72.977 20.1121C71.2185 21.6507 69.8873 22.42 68.9836 22.42C68.6658 22.42 68.4035 22.347 68.196 22.2001C67.9886 22.0532 67.8234 21.8648 67.7014 21.6324C67.5786 21.4009 67.494 21.1445 67.445 20.8631C67.3961 20.5826 67.372 20.3204 67.372 20.0756C67.372 19.1727 67.5056 18.1835 67.7753 17.1088C68.0434 16.0341 68.3795 14.9478 68.7828 13.8482C69.1861 12.7494 69.6193 11.693 70.0832 10.6797C70.5471 9.66646 70.9745 8.77517 71.3653 8.00587C71.7554 7.23658 72.0732 6.61998 72.318 6.15608C72.562 5.69218 72.6716 5.48471 72.6475 5.53368C72.6226 5.55857 72.5612 5.63741 72.4641 5.77185C72.3662 5.90629 72.2442 6.0648 72.0973 6.2482C71.9504 6.4316 71.8043 6.62745 71.6575 6.83409C71.5106 7.04156 71.3761 7.2316 71.2541 7.40173C69.0558 10.3569 67.1936 13.0922 65.6674 15.6075C64.1413 18.1229 62.8898 20.2905 61.9122 22.1096C60.9355 23.9295 60.0077 25.8764 59.128 27.9528C59.1811 27.9967 59.2234 28.0399 59.26 28.0764Z" />
  <path d="M89.9761 10.1079C88.5106 12.5013 87.3629 14.5038 86.533 16.1154C85.7023 17.727 85.0616 19.0216 84.6102 19.9984C84.1579 20.9752 83.8342 21.6714 83.6392 22.0864C83.4434 22.5021 83.26 22.7088 83.0898 22.7088C83.0168 22.7088 82.967 22.6972 82.9429 22.6723C82.894 22.6233 82.845 22.5752 82.796 22.5254C82.7471 22.4764 82.7413 22.3602 82.7778 22.1777C82.8143 21.9951 82.9114 21.708 83.0707 21.3171C83.2292 20.927 83.4923 20.3528 83.8583 19.5951C84.0782 19.1071 84.3222 18.6001 84.5911 18.0748C84.8591 17.5503 85.1097 17.0673 85.3421 16.6275C85.5736 16.1876 85.8367 15.6872 86.1297 15.1254C85.7878 15.5411 85.4882 15.8764 85.2317 16.1328C84.9753 16.3893 84.7064 16.6216 84.4259 16.8291C84.1446 17.0366 83.8824 17.1403 83.6384 17.1403C83.5404 17.1403 83.4425 17.1162 83.3454 17.0673C83.1496 16.9453 83.1014 16.7561 83.1985 16.4997C83.2956 16.2432 83.3819 16.0416 83.455 15.8955C83.2591 16.0183 83.0151 16.2009 82.7222 16.4449C82.4293 16.6897 82.1604 16.8117 81.9164 16.8117C81.8193 16.8117 81.733 16.7752 81.66 16.7021C81.4649 16.5802 81.367 16.4034 81.367 16.171C81.367 15.9395 81.5014 15.6034 81.7703 15.1636C81.9172 14.8947 82.1247 14.5652 82.3927 14.1743C82.6608 13.7843 82.8566 13.5519 82.9786 13.4781C83.1006 13.405 83.2102 13.3685 83.3081 13.3685C83.479 13.3685 83.601 13.4482 83.6741 13.6067C83.7471 13.766 83.723 13.9063 83.601 14.0283C83.4052 14.2972 83.2649 14.4922 83.1795 14.6142C83.094 14.737 82.9288 14.9801 82.6848 15.347C82.9529 15.127 83.2342 14.8955 83.5272 14.6507C83.8201 14.4067 84.089 14.1743 84.333 13.9544C84.577 13.7345 84.7911 13.5461 84.9737 13.3868C85.1571 13.2283 85.2608 13.137 85.2849 13.1121C85.4068 13.0391 85.5288 13.0026 85.6508 13.0026C85.8218 13.0026 85.9562 13.064 86.0541 13.186C86.1512 13.3088 86.1396 13.4548 86.0176 13.6258C85.9927 13.6507 85.9263 13.742 85.816 13.9005C85.7064 14.0598 85.5778 14.2366 85.4317 14.4316C85.2848 14.6275 85.1504 14.8158 85.0284 14.9992C84.9056 15.1826 84.8209 15.3229 84.772 15.4208C85.5778 14.566 86.4019 13.571 87.245 12.4349C88.0873 11.2997 88.899 10.1636 89.6807 9.02828C90.4624 7.89301 91.1944 6.81169 91.879 5.78596C92.5629 4.76023 93.1487 3.94198 93.6375 3.33119C93.7844 3.16023 93.9305 3.07475 94.0774 3.07475C94.2483 3.07475 94.3761 3.14779 94.4616 3.29467C94.5471 3.44156 94.5288 3.61252 94.4068 3.80754C94.26 4.05235 94.0035 4.42496 93.6375 4.92455C93.2707 5.42579 92.8683 5.98098 92.4284 6.59094C91.9886 7.20173 91.5429 7.81833 91.0915 8.44073C90.6417 9.06397 90.2691 9.61998 89.9761 10.1079Z" />
  <path d="M85.6533 20.3287C85.5313 20.4756 85.3969 20.5486 85.25 20.5486C85.128 20.5486 85.0243 20.488 84.9388 20.3652C84.8533 20.2432 84.8351 20.0972 84.884 19.9254C85.8857 18.2648 86.7587 16.8117 87.5031 15.566C88.2483 14.3204 89.06 12.9777 89.9388 11.5362C90.8176 10.0955 91.6425 8.75194 92.4118 7.50629C93.1811 6.26065 93.8276 5.21666 94.3529 4.37434C94.8782 3.53202 95.1645 3.09882 95.2135 3.07393C95.3106 3.02496 95.3844 3.0009 95.4334 3.0009C95.5554 3.0009 95.6649 3.05567 95.7629 3.16604C95.8599 3.27559 95.8599 3.42911 95.7629 3.62413L85.6533 20.3287Z" />
  <path d="M90.4151 13.5884C90.8301 13.2714 91.2209 13.1121 91.5878 13.1121C92.0757 13.1121 92.3753 13.3503 92.4848 13.8266C92.5944 14.303 92.357 14.81 91.7703 15.347C91.5745 15.5428 91.3861 15.6764 91.2027 15.7503C91.0193 15.8233 90.855 15.8598 90.7081 15.8598C90.4641 15.8598 90.2807 15.805 90.1587 15.6947C90.0359 15.5851 89.9753 15.5428 89.9753 15.5669C89.9504 15.5918 89.9205 15.6706 89.884 15.805C89.8475 15.9395 89.8292 16.0557 89.8292 16.1528C89.9512 16.1528 90.1712 16.1163 90.489 16.0432C90.806 15.9702 91.2583 15.7868 91.8442 15.4938C92.2591 15.2739 92.601 15.0972 92.8699 14.9627C93.1388 14.8291 93.3645 14.7063 93.5479 14.5967C93.7313 14.4872 93.8956 14.3893 94.0425 14.3038C94.1894 14.2183 94.3479 14.127 94.5189 14.0291C94.7139 14.0781 94.8483 14.1453 94.9222 14.2308C94.9952 14.3162 95.0317 14.4017 95.0317 14.4872C95.0317 14.5727 95.0068 14.6465 94.9587 14.7071C94.9097 14.7685 94.8608 14.8109 94.8118 14.8349C94.5189 15.0059 94.1579 15.2192 93.7313 15.4756C93.3039 15.732 92.8575 15.9768 92.3944 16.2084C91.9305 16.4407 91.4782 16.6358 91.0392 16.7943C90.5994 16.9536 90.2334 17.0324 89.9405 17.0324C89.7936 17.0324 89.684 17.02 89.611 16.9959C89.2691 16.8988 89.0674 16.7088 89.0068 16.4283C88.9463 16.1478 88.9703 15.8299 89.0799 15.4756C89.1894 15.1221 89.367 14.7735 89.611 14.4316C89.8533 14.0889 90.1222 13.8084 90.4151 13.5884ZM90.6351 14.9802C90.6591 15.0291 90.7629 15.005 90.9463 14.9071C91.1297 14.81 91.2815 14.6631 91.4044 14.4673C91.6243 14.1503 91.6724 13.9909 91.5512 13.9909C91.3554 13.9909 91.0873 14.1378 90.7454 14.4308C90.6724 14.5038 90.6359 14.5777 90.6359 14.6507C90.66 14.7237 90.6666 14.7918 90.6541 14.8523C90.64 14.9138 90.6351 14.9561 90.6351 14.9802Z" />
  <path d="M94.811 13.4416C94.884 13.3685 94.9819 13.332 95.1039 13.332C95.2259 13.332 95.3355 13.381 95.4334 13.4789C95.5305 13.5768 95.5554 13.6864 95.5064 13.8084L95.1404 14.6142C94.8716 15.176 94.7496 15.4565 94.7745 15.4565L94.811 15.42C94.811 15.3959 94.8351 15.3594 94.884 15.3104C95.1039 15.0905 95.3786 14.8158 95.7081 14.4864C96.0375 14.1569 96.3919 13.8449 96.7703 13.5519C97.1487 13.259 97.5272 13.0092 97.9056 12.8009C98.284 12.5934 98.6201 12.4897 98.9131 12.4897C99.3031 12.4897 99.5911 12.6308 99.7736 12.9113C99.957 13.1926 100.023 13.5038 99.9753 13.8457C99.9504 14.1146 99.8898 14.298 99.7919 14.3951C99.694 14.493 99.596 14.542 99.4989 14.542C99.401 14.542 99.3155 14.5055 99.2425 14.4324C99.1197 14.2855 99.0898 14.1212 99.1512 13.9378C99.2118 13.7544 99.2184 13.6026 99.1695 13.4797C99.1446 13.4067 99.0716 13.3702 98.9496 13.3702C98.6317 13.3702 98.1073 13.6449 97.3745 14.1943C96.6417 14.7436 95.8848 15.4831 95.1031 16.4109L93.7479 18.059C93.6259 18.2059 93.4915 18.2789 93.3446 18.2789C93.1736 18.2789 93.0276 18.2117 92.9048 18.0772C92.7828 17.9436 92.7463 17.7901 92.7952 17.6192C92.7952 17.5702 92.8998 17.332 93.1064 16.9046C93.3139 16.4772 93.5404 16.0067 93.7844 15.4938C94.0284 14.981 94.255 14.5171 94.4624 14.1021C94.6699 13.6864 94.7861 13.4665 94.811 13.4416Z" />
  <path d="M34.718 42.181C33.2284 42.7669 31.8176 43.3295 30.4873 43.8665C29.1562 44.4034 27.9288 44.8855 26.806 45.3138C25.6824 45.7403 24.6691 46.0831 23.7653 46.3395C22.8624 46.5959 22.1048 46.7237 21.494 46.7237C21.201 46.7237 20.9205 46.669 20.6517 46.5586C20.3836 46.449 20.1753 46.259 20.0292 45.9909C19.8093 45.5752 19.8641 45.0565 20.1944 44.4341C20.5239 43.8117 20.9637 43.1884 21.5131 42.566C22.0624 41.9436 22.655 41.3569 23.2898 40.8075C23.9255 40.2582 24.4251 39.8366 24.7919 39.5436C25.6467 38.8839 26.4583 38.3046 27.2276 37.8034C27.9969 37.303 28.6807 36.8872 29.279 36.5577C29.8774 36.2283 30.3471 35.9843 30.689 35.825C31.0309 35.6665 31.1894 35.5868 31.1653 35.5868C31.0674 35.5868 30.884 35.605 30.616 35.6416C30.3471 35.6781 30.0359 35.727 29.6815 35.7884C29.3272 35.8499 28.9429 35.898 28.528 35.9353C28.1122 35.9719 27.7097 35.9901 27.3189 35.9901C26.6832 35.9901 26.1338 35.9113 25.6707 35.7519C25.2068 35.5934 24.9504 35.2698 24.9014 34.781C24.8525 34.2192 25.255 33.4623 26.1106 32.5096C26.9653 31.5569 28.0766 30.5378 29.4442 29.4507C30.8118 28.3644 32.338 27.259 34.0234 26.1353C35.7089 25.0125 37.3687 24.005 39.0052 23.1129C40.6409 22.2216 42.1496 21.4889 43.5297 20.9146C44.9089 20.3411 45.9778 20.054 46.7346 20.054C47.2475 20.054 47.577 20.2009 47.7239 20.4938C47.8948 20.8598 47.7728 21.2756 47.3579 21.7395C46.9421 22.2034 46.4417 22.6432 45.8558 23.0582C45.2699 23.4739 44.7073 23.8216 44.1703 24.1021C43.6326 24.3835 43.3031 24.5113 43.1811 24.4864C43.0342 24.4623 42.9371 24.3644 42.8882 24.1934C42.8151 23.9246 43.0467 23.6681 43.5844 23.4241C44.1214 23.1802 44.8541 22.7162 45.7828 22.0324C46.0027 21.8615 46.1861 21.7088 46.3322 21.5743C46.479 21.4407 46.5886 21.3246 46.6616 21.2266C46.7587 21.1295 46.8326 21.0316 46.8815 20.9337C46.2458 20.9337 45.4525 21.1113 44.5006 21.4648C43.5479 21.8192 42.5712 22.2465 41.5703 22.747C40.5687 23.2482 39.6226 23.7544 38.7313 24.2673C37.8392 24.7801 37.138 25.1959 36.6251 25.5129C35.6724 26.0988 34.7322 26.7038 33.8044 27.3262C32.8757 27.9486 32.0027 28.5719 31.1853 29.1943C30.367 29.8167 29.616 30.4216 28.9322 31.0075C28.2483 31.5934 27.6741 32.1187 27.2102 32.5826C26.6973 33.1204 26.3131 33.5901 26.0566 33.9934C25.8002 34.3967 25.7205 34.6714 25.8185 34.8175C25.8674 34.9403 26.0201 35.0192 26.2766 35.0557C26.533 35.0922 26.8317 35.1104 27.1736 35.1104C27.7106 35.1104 28.2666 35.0797 28.84 35.0192C29.4135 34.9586 29.7985 34.9154 29.9936 34.8914C31.8251 34.6233 33.2176 34.3544 34.1695 34.0855C35.1222 33.8167 35.7811 33.6822 36.1479 33.6822C36.416 33.6822 36.5512 33.8167 36.5512 34.0855C36.5512 34.2324 36.5081 34.3362 36.4234 34.3967C36.338 34.4582 36.1363 34.5494 35.8193 34.6714C34.1338 35.2333 32.5529 35.8864 31.0757 36.6316C29.5977 37.3768 28.2608 38.1519 27.0641 38.9577C25.8674 39.7636 24.8292 40.5636 23.9504 41.3569C23.0716 42.1511 22.3695 42.8714 21.8442 43.5179C21.3197 44.1644 20.9961 44.6955 20.8732 45.1113C20.7512 45.5262 20.8608 45.7577 21.2027 45.8075C21.2517 45.8075 21.3073 45.8133 21.3678 45.8258C21.4292 45.8374 21.484 45.8441 21.533 45.8441C22.2168 45.8441 23.1878 45.6366 24.445 45.2216C25.7023 44.8059 27.04 44.3179 28.4566 43.7561C29.8724 43.1943 31.2649 42.6266 32.6326 42.0523C34.0002 41.4789 35.1355 41.0449 36.0392 40.7519C36.2342 40.703 36.3562 40.6789 36.4052 40.6789C36.6492 40.6789 36.7712 40.8017 36.7712 41.0449C36.7712 41.1179 36.7529 41.186 36.7164 41.2465C36.6799 41.308 36.5936 41.3743 36.46 41.4482C36.3255 41.5212 36.1239 41.6133 35.8558 41.7229C35.5844 41.8324 35.206 41.9851 34.718 42.181Z" />
  <path d="M43.2533 32.6192C43.4483 32.4972 43.6193 32.4117 43.7662 32.3627C43.9131 32.3138 44.0832 32.2897 44.279 32.2897C44.499 32.3387 44.645 32.4548 44.7189 32.6374C44.7927 32.82 44.7919 33.0216 44.7189 33.2416C44.694 33.3146 44.6458 33.4308 44.572 33.5893C44.499 33.7486 44.4251 33.9071 44.3521 34.0656C44.279 34.225 44.211 34.3652 44.1504 34.4872C44.089 34.61 44.0707 34.6831 44.0956 34.7071C44.0956 34.732 44.138 34.732 44.2234 34.7071C44.3089 34.6831 44.4674 34.61 44.6998 34.4872C44.9313 34.3652 45.2799 34.1884 45.7438 33.9561C46.2077 33.7245 46.8185 33.4125 47.5753 33.0216C47.8434 33.1196 47.9969 33.2598 48.0334 33.4432C48.0699 33.6266 47.9902 33.7793 47.7952 33.9013C47.6483 33.9992 47.3977 34.1461 47.0442 34.3411C46.6898 34.537 46.3172 34.732 45.9272 34.927C45.5363 35.1229 45.1637 35.293 44.8102 35.4399C44.4558 35.5868 44.1811 35.6598 43.9861 35.6598C43.7172 35.6598 43.5098 35.5494 43.3637 35.3304C43.2658 35.1835 43.2168 35.0067 43.2168 34.7992C43.2168 34.5918 43.2475 34.3959 43.3081 34.2133C43.3687 34.0299 43.4359 33.8598 43.5097 33.7005C43.5828 33.542 43.6193 33.4507 43.6193 33.4258L43.4724 33.5353C43.3496 33.6084 43.1363 33.7428 42.8317 33.9387C42.5263 34.1345 42.1961 34.3544 41.8425 34.5984C41.4882 34.8432 41.1587 35.0872 40.8533 35.3312C40.5479 35.576 40.3346 35.7835 40.2118 35.9536C40.0898 36.1005 39.9438 36.1735 39.772 36.1735C39.6749 36.1735 39.601 36.1611 39.5521 36.137C39.4301 36.088 39.357 36.0034 39.3322 35.8806C39.3081 35.7586 39.3197 35.649 39.3687 35.5511C39.3687 35.527 39.4234 35.4233 39.5338 35.2399C39.6442 35.0565 39.772 34.8432 39.918 34.5992C40.3089 33.9893 40.6085 33.5129 40.8151 33.171C41.0226 32.8291 41.1811 32.5793 41.2915 32.42C41.401 32.2615 41.4807 32.1702 41.5297 32.1453C41.5786 32.1212 41.6392 32.1088 41.7131 32.1088C41.86 32.1088 41.9878 32.1577 42.0973 32.2557C42.2068 32.3536 42.2375 32.488 42.1886 32.659C42.1637 32.732 42.1214 32.8241 42.0608 32.9337C41.9994 33.0432 41.9446 33.1229 41.8956 33.1718C41.7247 33.4407 41.6508 33.5752 41.6757 33.5752C41.7247 33.5752 41.8707 33.4839 42.1156 33.3005C42.3612 33.1138 42.7405 32.8889 43.2533 32.6192Z" />
  <path d="M51.7877 33.8283C51.6168 33.9262 51.3172 34.0972 50.8907 34.3411C50.4633 34.586 50.0052 34.8299 49.5172 35.0739C49.0284 35.3187 48.5521 35.532 48.0882 35.7154C47.6243 35.8988 47.2824 35.9901 47.0624 35.9901C46.9404 35.9901 46.855 35.9777 46.806 35.9536C46.416 35.8316 46.2442 35.5685 46.2931 35.166C46.3421 34.7627 46.5073 34.3478 46.7877 33.9204C47.0691 33.493 47.4102 33.1146 47.8135 32.7851C48.2168 32.4557 48.5886 32.2905 48.9305 32.2905C49.1985 32.2905 49.3819 32.3768 49.4799 32.547C49.577 32.7179 49.6019 32.9013 49.5529 33.0963C49.455 33.3652 49.3089 33.4997 49.1131 33.4997C48.9172 33.4997 48.7952 33.4142 48.7471 33.2432L48.5272 33.3163C48.1114 33.6092 47.7819 33.9519 47.538 34.342C47.294 34.7328 47.172 34.9777 47.172 35.0748C47.172 35.1478 47.3795 35.0872 47.7944 34.8914C48.2093 34.6963 48.679 34.4698 49.2043 34.2133C49.7288 33.9569 50.2234 33.7071 50.6882 33.4623C51.1521 33.2183 51.4326 33.0723 51.5305 33.0225C51.9454 33.0955 52.1288 33.2241 52.0799 33.4075C52.0317 33.5901 51.9346 33.7312 51.7877 33.8283Z" />
  <path d="M51.8243 32.4366C51.8973 32.3636 51.9952 32.327 52.1172 32.327C52.2392 32.327 52.3487 32.376 52.4467 32.4739C52.5438 32.5719 52.5687 32.6814 52.5197 32.8034L52.1537 33.6092C51.8849 34.171 51.7629 34.4515 51.7878 34.4515L51.8243 34.415C51.8243 34.3909 51.8483 34.3544 51.8973 34.3055C52.1172 34.0855 52.3919 33.8109 52.7214 33.4814C53.0508 33.1519 53.4052 32.8399 53.7836 32.547C54.162 32.254 54.5405 32.0042 54.9189 31.7959C55.2973 31.5885 55.6334 31.4847 55.9263 31.4847C56.3164 31.4847 56.6044 31.6258 56.7869 31.9063C56.9703 32.1876 57.0367 32.4988 56.9886 32.8407C56.9637 33.1096 56.9031 33.293 56.8052 33.3901C56.7073 33.488 56.6093 33.537 56.5122 33.537C56.4143 33.537 56.3288 33.5005 56.2558 33.4275C56.133 33.2806 56.1031 33.1163 56.1645 32.9329C56.2251 32.7494 56.2317 32.5976 56.1828 32.4748C56.1579 32.4017 56.0848 32.3652 55.9629 32.3652C55.645 32.3652 55.1205 32.6399 54.3878 33.1893C53.655 33.7387 52.8981 34.4781 52.1164 35.4059L50.7612 37.054C50.6392 37.2009 50.5048 37.2739 50.3579 37.2739C50.1878 37.2739 50.0409 37.2067 49.918 37.0723C49.7961 36.9387 49.7595 36.7851 49.8085 36.6142C49.8085 36.5652 49.9122 36.327 50.1197 35.8997C50.3272 35.4723 50.5537 35.0017 50.7977 34.4889C51.0425 33.976 51.2683 33.5121 51.4757 33.0972C51.6832 32.6806 51.7994 32.4606 51.8243 32.4366Z" />
  <path d="M53.4724 41.2648C54.0102 40.8988 54.523 40.5204 55.011 40.1295C55.4998 39.7395 55.9454 39.3785 56.3479 39.049C56.7504 38.7196 57.0931 38.4208 57.3736 38.1519C57.6541 37.8831 57.8558 37.7005 57.9778 37.6026L58.2342 37.1627C58.6002 36.5279 58.894 35.9967 59.1131 35.5694C59.333 35.1428 59.4973 34.7943 59.6077 34.5254C59.7172 34.2573 59.7911 34.0615 59.8276 33.9395C59.8641 33.8175 59.8948 33.7445 59.9189 33.7196C59.7479 33.8665 59.6259 33.9702 59.5529 34.0308C59.4799 34.0922 59.4118 34.147 59.3512 34.1959C59.2898 34.2449 59.2351 34.2938 59.1861 34.3428C59.1371 34.3918 59.0392 34.4772 58.8931 34.5992C58.1604 35.2831 57.6533 35.7295 57.3728 35.9362C57.0923 36.1436 56.8541 36.2358 56.6583 36.2109C56.3653 36.2109 56.1944 36.1071 56.1454 35.8997C56.0965 35.6922 56.1089 35.4358 56.1819 35.1304C56.255 34.825 56.3653 34.508 56.5114 34.1777C56.6575 33.8474 56.8043 33.5611 56.9512 33.3171C57.0741 33.0731 57.2317 32.8109 57.4276 32.5295C57.6226 32.249 57.8425 32.108 58.0873 32.108C58.1114 32.108 58.1363 32.1146 58.1604 32.1262C58.1844 32.1387 58.2093 32.1445 58.2334 32.1445C58.4284 32.2175 58.5446 32.3461 58.5811 32.5287C58.6176 32.7113 58.5263 32.8523 58.3064 32.9503C58.2085 32.9752 58.099 33.0914 57.977 33.298C57.8541 33.5055 57.7321 33.7254 57.6102 33.9577C57.4873 34.1901 57.3844 34.41 57.299 34.6175C57.2135 34.825 57.1463 34.9652 57.0973 35.0391C57.9272 34.3312 58.538 33.7876 58.9288 33.4092C59.3189 33.0308 59.6492 32.781 59.918 32.6582C60.0649 32.6092 60.1745 32.5851 60.2475 32.5851C60.4425 32.5851 60.601 32.6714 60.7238 32.8416C60.8458 33.0125 60.8824 33.2689 60.8334 33.6109C60.7355 34.1237 60.6077 34.5212 60.4492 34.8017C60.2898 35.0831 60.2234 35.2233 60.2475 35.2233L60.7238 34.7835C60.9189 34.5885 61.1081 34.3934 61.2915 34.1976C61.4749 34.0026 61.6633 33.8075 61.8591 33.6117C62.0541 33.4167 62.2492 33.2216 62.445 33.0258C63.0799 33.1237 63.1778 33.4109 62.738 33.8864C62.2981 34.3627 61.5413 35.1627 60.4666 36.2855C60.0508 36.7254 59.728 37.0615 59.4956 37.293C59.2633 37.5254 59.0865 37.7021 58.9645 37.8241C58.8417 37.947 58.757 38.0441 58.7081 38.1171C58.6591 38.1901 58.5985 38.288 58.5247 38.41C58.2799 38.8499 57.889 39.503 57.3521 40.3702C56.8151 41.2374 56.2168 42.1046 55.557 42.971C54.8973 43.8382 54.2259 44.6009 53.5421 45.2607C52.8583 45.9204 52.2483 46.2499 51.7106 46.2499C51.5886 46.2499 51.4907 46.2374 51.4176 46.2133C51.0027 46.0905 50.7529 45.8042 50.6666 45.3528C50.5811 44.9005 50.5878 44.4922 50.6848 44.1254C50.8807 43.4175 51.2409 42.8681 51.7653 42.4772C52.2948 42.0831 52.8624 41.6806 53.4724 41.2648ZM56.4035 40.166C55.7936 40.7279 55.1944 41.1984 54.6085 41.5768C54.0226 41.9561 53.4973 42.3038 53.0334 42.6208C52.5695 42.9387 52.1969 43.2681 51.9164 43.61C51.6359 43.9519 51.4832 44.3544 51.4583 44.8192C51.4583 45.1851 51.5438 45.3685 51.7147 45.3685C51.7877 45.3685 51.8981 45.332 52.0442 45.259C52.4599 45.088 52.9297 44.7212 53.455 44.1602C53.9803 43.5984 54.4682 43.0192 54.9205 42.42C55.3728 41.8216 55.7446 41.2905 56.0375 40.8266C56.3297 40.3619 56.4525 40.142 56.4035 40.166Z" />
  <path d="M62.8865 32.3262C63.1064 31.9602 63.2649 31.7221 63.3629 31.6117C63.46 31.5021 63.5703 31.4465 63.6923 31.4465C63.9604 31.4465 64.1006 31.5196 64.1139 31.6665C64.1255 31.8133 64.1197 31.9478 64.0956 32.0698C64.1927 32.0208 64.3886 31.942 64.6815 31.8316C64.9745 31.7212 65.2799 31.6665 65.5977 31.6665C65.9396 31.6665 66.2201 31.776 66.44 31.9959C66.66 32.2407 66.7205 32.5337 66.6234 32.8748C66.5255 33.2167 66.3305 33.5528 66.0375 33.8822C65.7446 34.2117 65.4019 34.5113 65.0118 34.7793C64.621 35.0482 64.2425 35.2316 63.8766 35.3287C63.8035 35.3536 63.699 35.3777 63.5653 35.4017C63.4309 35.4266 63.2782 35.4382 63.1073 35.4382C62.7405 35.4382 62.4475 35.3652 62.2284 35.2183C62.1064 35.3652 61.8749 35.7254 61.5322 36.2988C61.1902 36.8731 60.7878 37.5503 60.323 38.332C59.8591 39.1138 59.3645 39.9378 58.8392 40.805C58.3139 41.6723 57.8259 42.4847 57.3736 43.2407C56.9222 43.9976 56.5438 44.6324 56.2384 45.1453C55.933 45.6582 55.7562 45.9511 55.7073 46.0241C55.5853 46.1461 55.4633 46.2075 55.3413 46.2075C55.2683 46.2075 55.2077 46.1951 55.1579 46.171C55.0608 46.1221 54.9927 46.0432 54.9562 45.9328C54.9197 45.8225 54.9255 45.7071 54.9745 45.5851C54.9994 45.5121 55.1944 45.1694 55.5604 44.5594C55.9272 43.9494 56.3662 43.21 56.879 42.3428C57.3919 41.4764 57.9479 40.5478 58.5454 39.5586C59.1438 38.5694 59.6932 37.6482 60.1936 36.7926C60.6948 35.9378 61.1222 35.2175 61.4757 34.6316C61.8301 34.0457 62.0068 33.7287 62.0068 33.6789C62.0317 33.5818 62.0558 33.508 62.0799 33.459C62.1048 33.41 62.1529 33.3494 62.2268 33.2756C62.3006 33.2017 62.3861 33.0922 62.4832 32.9461C62.5811 32.8026 62.7156 32.5959 62.8865 32.3262ZM62.8135 34.1951C62.7886 34.22 62.7703 34.2441 62.7587 34.2681C62.7463 34.293 62.728 34.3171 62.7039 34.3411L62.6674 34.3777C62.6674 34.5005 62.8259 34.5611 63.1438 34.5611C63.3637 34.5611 63.6077 34.5063 63.8766 34.3959C64.1446 34.2864 64.4077 34.1395 64.6641 33.9561C64.9205 33.7727 65.1521 33.5719 65.3604 33.3519C65.5678 33.132 65.7081 32.9246 65.7819 32.7295C65.806 32.6324 65.7695 32.5826 65.6724 32.5826C65.4035 32.5826 65.1048 32.6374 64.7745 32.7478C64.4442 32.8582 64.1703 32.9735 63.9504 33.0955C63.6326 33.2665 63.4127 33.4009 63.2907 33.4988C63.1678 33.5967 63.089 33.6822 63.0525 33.7553C63.016 33.8283 62.9911 33.8963 62.9795 33.9569C62.9654 34.0183 62.9106 34.0972 62.8135 34.1951Z" />
  <path d="M69.9562 27.8573C69.5902 27.8573 69.1562 27.8698 68.6558 27.8938C68.1546 27.9187 67.6359 27.9611 67.099 28.0216C66.562 28.0831 66.0492 28.1627 65.5604 28.2598C65.0724 28.3577 64.6691 28.4797 64.3512 28.6266C64.2541 28.6756 64.1197 28.6997 63.9479 28.6997C63.6799 28.6997 63.5396 28.5901 63.5263 28.3702C63.5139 28.1503 63.6674 27.9669 63.9844 27.8208C64.3504 27.6507 64.8027 27.5096 65.3396 27.3992C65.8774 27.2897 66.4384 27.2042 67.0243 27.1428C67.6102 27.0822 68.1902 27.0391 68.7645 27.015C69.338 26.9909 69.8209 26.9785 70.2118 26.9785C70.4068 26.9785 70.523 26.9478 70.5595 26.8872C70.5961 26.8266 70.6873 26.6855 70.8342 26.4656C71.5911 25.293 72.1836 24.3843 72.611 23.7362C73.0375 23.0897 73.3678 22.6133 73.6002 22.3071C73.8317 22.0017 73.9969 21.8192 74.0948 21.7577C74.1919 21.6972 74.2782 21.6665 74.3512 21.6665C74.6683 21.6175 74.8276 21.7519 74.8276 22.0698C74.8027 22.1187 74.7786 22.1677 74.7546 22.2167C74.7297 22.2656 74.6566 22.3635 74.5346 22.5096C74.3878 22.7055 74.1504 23.0474 73.8201 23.5353C73.4907 24.0241 73.1546 24.5121 72.8127 25.0009C72.4218 25.6117 72.0068 26.259 71.567 26.9428C71.7869 26.9428 72.2317 26.9611 72.9039 26.9976C73.5753 27.0341 74.2649 27.0889 74.9737 27.1627C75.6815 27.2357 76.3048 27.3461 76.8417 27.4922C77.3786 27.6391 77.6475 27.8216 77.6475 28.0416C77.6475 28.3104 77.5131 28.4449 77.2442 28.4449C77.1214 28.4449 76.9878 28.4266 76.8409 28.3901C76.694 28.3536 76.5595 28.3229 76.4375 28.2988C76.0956 28.2258 75.6865 28.1586 75.2102 28.0972C74.7338 28.0366 74.2517 27.9876 73.7629 27.9503C73.2741 27.9138 72.816 27.8831 72.3894 27.859C71.962 27.8349 71.6135 27.8225 71.3454 27.8225H71.089C71.04 27.8474 71.0035 27.859 70.9795 27.859L70.4666 28.7013C69.2699 30.6308 68.2873 32.3279 67.5172 33.7934C66.7479 35.259 66.1496 36.4739 65.7222 37.4382C65.2948 38.4034 64.9346 39.386 64.6417 40.3868C64.6666 40.4357 64.8923 40.2349 65.3197 39.7826C65.7471 39.3312 66.2724 38.7635 66.8948 38.0789C67.5172 37.3951 68.1828 36.6748 68.8915 35.9179C69.5994 35.1611 70.2342 34.4889 70.7961 33.903L71.4185 33.2806C71.5156 33.1835 71.6135 33.0972 71.7114 33.0241C71.9554 33.0972 72.1147 33.1768 72.1878 33.2623C72.2608 33.3478 72.279 33.4457 72.2425 33.5553C72.206 33.6648 72.1388 33.781 72.0409 33.903C71.9429 34.0258 71.8334 34.1478 71.7114 34.2689C70.7587 35.1976 69.8915 36.0947 69.1106 36.9611C68.3288 37.8283 67.6392 38.5909 67.0409 39.2507C66.4425 39.9104 65.918 40.4358 65.4658 40.8258C65.0143 41.2167 64.6417 41.4117 64.3488 41.4117C64.2268 41.4117 64.1413 41.4001 64.0923 41.3752V41.4117C63.8724 41.2897 63.7571 41.1005 63.7446 40.844C63.733 40.5876 63.7512 40.3378 63.7994 40.093C63.9463 39.4582 64.2027 38.7196 64.5687 37.8764C64.9346 37.0341 65.3446 36.1677 65.7961 35.2756C66.2483 34.3843 66.718 33.4988 67.206 32.62C67.694 31.7411 68.1405 30.9536 68.5429 30.2573C68.9463 29.5611 69.2815 28.9934 69.5504 28.5536C69.8218 28.1138 69.9562 27.8822 69.9562 27.8573Z" />
  <path d="M71.7877 36.0997C71.6409 36.1486 71.5313 36.1727 71.4583 36.1727C71.2633 36.1727 71.1106 36.0938 71.0002 35.9345C70.8907 35.776 70.8483 35.5494 70.8724 35.2565C70.8724 35.0125 70.9272 34.7254 71.0375 34.3959C71.1479 34.0665 71.2824 33.7553 71.4409 33.4615C71.6002 33.1685 71.7645 32.9063 71.9355 32.6739C72.1064 32.4424 72.2525 32.3021 72.3753 32.2524C72.5703 32.2034 72.7471 32.1246 72.9064 32.0142C73.0649 31.9046 73.2782 31.8374 73.5479 31.8125C74.0118 31.8125 74.2309 32.02 74.2077 32.4349C74.1828 32.8507 74.0301 33.3138 73.7496 33.8266C73.4683 34.3395 73.1388 34.8216 72.7604 35.2739C72.3803 35.7279 72.0566 36.0026 71.7877 36.0997ZM71.8251 35.0009C71.8981 34.9279 72.0085 34.7934 72.1546 34.5976C72.3014 34.4026 72.4533 34.1893 72.6126 33.9569C72.7711 33.7254 72.918 33.4988 73.0525 33.2789C73.1861 33.059 73.2541 32.9005 73.2541 32.8026C72.9122 32.9254 72.6741 33.0897 72.5396 33.2972C72.4052 33.5046 72.2649 33.7793 72.118 34.1212C72.045 34.2922 71.977 34.4689 71.9164 34.6523C71.855 34.8358 71.8251 34.9519 71.8251 35.0009Z" />
</svg>
