<svg version="1.1" xmlns="http://www.w3.org/2000/svg" xmlns:xlink="http://www.w3.org/1999/xlink" viewBox="0 0 172 172" width="172" height="172">
  <path
    d="M67.08,6.88c-14.23128,0 -25.8,11.56872 -25.8,25.8c0,8.4108 4.07296,15.88377 10.32,20.58625v-9.74219c-2.16376,-3.0788 -3.44,-6.81238 -3.44,-10.84406c0,-10.42664 8.49336,-18.92 18.92,-18.92c10.42664,0 18.92,8.49336 18.92,18.92c0,4.03168 -1.27624,7.7687 -3.44,10.84406v9.74219c6.24704,-4.71624 10.32,-12.17545 10.32,-20.58625c0,-0.58136 -0.04951,-1.14896 -0.08735,-1.72h57.20344l-11.395,11.5025c-1.33816,1.35192 -1.32161,3.53294 0.02687,4.8711c0.6708,0.66048 1.54499,0.99437 2.41875,0.99437c0.88752,0 1.77139,-0.34357 2.44563,-1.02125l17.17984,-17.35453v-0.00672l2.40531,-2.42547l-2.40531,-2.42547l-0.00672,-0.00672l-16.81031,-16.985c-1.3416,-1.3588 -3.51589,-1.3616 -4.86437,-0.02688c-1.35192,1.33816 -1.3616,3.5159 -0.02688,4.86438l11.03219,11.13969h-58.6211c-3.55352,-10.00696 -13.08404,-17.2 -24.295,-17.2zM67.06656,24.22781c-3.3196,0 -8.58656,2.22783 -8.58656,8.22375v84.68312l-20.72063,-20.73406c-4.70248,-4.70248 -12.33627,-4.70248 -17.03875,0c-4.70248,4.70248 -4.70248,12.33659 0,17.02531l37.75938,37.93406c2.35296,2.35296 14.18989,13.73312 30.24781,13.73313c0.1204,0.01376 28.23219,0.02687 28.23219,0.02687c15.22544,0 30.96,-11.58248 30.96,-30.96v-49.59781c0,-4.73 -2.56538,-8.88219 -8.4925,-8.88219c-5.91336,0 -8.61344,4.08758 -8.61344,8.7075v8.4925c0,1.89544 -1.5308,3.44 -3.44,3.44c-1.892,0 -3.53406,-1.54456 -3.53406,-3.44v-15.54719c0.0688,-4.1624 -2.50249,-8.53281 -8.53281,-8.53281c-6.02,0 -8.61344,4.68808 -8.61344,8.62687l-0.05375,8.57313c0,1.89544 -1.5308,3.44 -3.44,3.44c-1.89544,0 -3.49375,-1.5308 -3.49375,-3.44l0.05375,-12.01313c0,-3.48128 -2.68761,-8.62687 -8.55969,-8.62687c-5.88584,0 -8.62688,5.14559 -8.62688,8.62687l-0.01344,12.01313c0,1.89544 -1.54456,3.44 -3.44,3.44c-1.89544,0 -3.44,-1.54456 -3.44,-3.44v-53.15875c0,-6.31584 -5.14592,-8.61344 -8.61344,-8.61344z">
  </path>
</svg>