<svg width="32" height="32" viewBox="0 0 32 32" xmlns="http://www.w3.org/2000/svg">
  <path d="M11.3416 14.0853L16.0028 9.42559L20.666 14.0891L23.3767 11.3763L16.0028 4L8.62902 11.3744L11.3416 14.0853Z" />
  <path d="M4 16.0019L6.71069 13.2891L9.42327 16.0019L6.71069 18.7128L4 16.0019Z" />
  <path d="M11.3416 17.9166L16.0028 22.5782L20.666 17.9147L23.3786 20.6237L16.0047 28L8.62902 20.6294L11.3416 17.9166Z" />
  <path d="M22.5767 16.0019L25.2874 13.2891L28 16L25.2874 18.7147L22.5767 16.0019Z" />
  <path d="M18.7533 16L16.0028 13.2474L13.9689 15.2815L13.7338 15.5147L13.2524 15.9962L16.0028 18.745L18.7533 16.0019V16Z" />
</svg>
